<?xml version="1.0" encoding="UTF-8" standalone="no"?>
<svg
   xmlns:dc="http://purl.org/dc/elements/1.1/"
   xmlns:cc="http://creativecommons.org/ns#"
   xmlns:rdf="http://www.w3.org/1999/02/22-rdf-syntax-ns#"
   xmlns:svg="http://www.w3.org/2000/svg"
   xmlns="http://www.w3.org/2000/svg"
   xmlns:xlink="http://www.w3.org/1999/xlink"
   xmlns:sodipodi="http://sodipodi.sourceforge.net/DTD/sodipodi-0.dtd"
   xmlns:inkscape="http://www.inkscape.org/namespaces/inkscape"
   width="150"
   height="57"
   viewBox="0 0 150 57"
   fill="none"
   version="1.1"
   id="svg60"
   sodipodi:docname="ofheader.svg"
   inkscape:version="1.0.1 (3bc2e813f5, 2020-09-07)">
  <metadata
     id="metadata66">
    <rdf:RDF>
      <cc:Work
         rdf:about="">
        <dc:format>image/svg+xml</dc:format>
        <dc:type
           rdf:resource="http://purl.org/dc/dcmitype/StillImage" />
        <dc:title></dc:title>
      </cc:Work>
    </rdf:RDF>
  </metadata>
  <defs
     id="defs64">
    <linearGradient
       inkscape:collect="always"
       id="linearGradient76">
      <stop
         style="stop-color:#342166;stop-opacity:1;"
         offset="0"
         id="stop72" />
      <stop
         style="stop-color:#342166;stop-opacity:0;"
         offset="1"
         id="stop74" />
    </linearGradient>
    <linearGradient
       inkscape:collect="always"
       xlink:href="#linearGradient76"
       id="linearGradient78"
       x1="48.454544"
       y1="27.333334"
       x2="146.19193"
       y2="27.333334"
       gradientUnits="userSpaceOnUse" />
  </defs>
  <sodipodi:namedview
     pagecolor="#ffffff"
     bordercolor="#666666"
     borderopacity="1"
     objecttolerance="10"
     gridtolerance="10"
     guidetolerance="10"
     inkscape:pageopacity="0"
     inkscape:pageshadow="2"
     inkscape:window-width="1920"
     inkscape:window-height="1027"
     id="namedview62"
     showgrid="false"
     inkscape:zoom="2.4146341"
     inkscape:cx="98.44786"
     inkscape:cy="32"
     inkscape:window-x="-8"
     inkscape:window-y="-8"
     inkscape:window-maximized="1"
     inkscape:current-layer="svg60" />
  <rect
     style="fill:url(#linearGradient78);fill-opacity:1;stroke-width:0.914854"
     id="rect68"
     width="150"
     height="57"
     x="0"
     y="0"
     inkscape:export-xdpi="96"
     inkscape:export-ydpi="96" />
  <path
     fill-rule="evenodd"
     clip-rule="evenodd"
     d="m 170.846,15.0344 c 0,-4.7956 0.579,-7.77221 1.738,-8.92977 1.159,-1.15756 3.996,-1.73634 8.511,-1.73634 4.618,0 7.498,0.62012 8.639,1.86036 1.142,1.24025 1.713,4.17545 1.713,8.80575 v 30.7888 c 0,4.7337 -0.579,7.7155 -1.738,8.9451 -1.159,1.2297 -4.013,1.8447 -8.563,1.845 -4.6,0 -7.467,-0.6304 -8.6,-1.8911 -1.133,-1.2608 -1.7,-4.2271 -1.7,-8.899 z M 153.415,56.2412 V 4.67835 h 14.288 V 12.988 h -5.342 v 10.7281 h 5.342 v 8.4029 h -5.342 V 56.2412 Z M 195.076,4.67835 V 56.2412 h 8.997 V 35.8085 h 0.537 c 0.801,0 1.346,0.186 1.635,0.5581 0.29,0.372 0.435,1.0955 0.435,2.1704 v 17.7042 h 9.022 v -16.774 c 0,-2.5837 -0.315,-4.4905 -0.946,-5.7205 -0.63,-1.23 -1.712,-2.1137 -3.246,-2.6512 1.585,-0.6823 2.679,-1.6538 3.284,-2.9145 0.605,-1.2608 0.908,-3.7619 0.908,-7.5035 v -5.3331 c 0,-4.6507 -0.613,-7.59108 -1.84,-8.82107 -1.227,-1.22999 -4.072,-1.84498 -8.537,-1.84498 z M 222.705,56.2412 V 13.174 h -4.6 V 4.67835 h 18.146 V 13.174 H 231.65 V 56.2412 Z M 238.935,4.67835 V 56.2412 h 8.997 V 35.8085 h 0.537 c 0.801,0 1.346,0.186 1.635,0.5581 0.29,0.372 0.435,1.0955 0.435,2.1704 v 17.7042 h 9.022 v -16.774 c 0,-2.5837 -0.315,-4.4905 -0.946,-5.7205 -0.63,-1.23 -1.712,-2.1137 -3.246,-2.6512 1.585,-0.6823 2.68,-1.6538 3.285,-2.9145 0.605,-1.2608 0.907,-3.7619 0.907,-7.5035 v -5.3331 c 0,-4.6507 -0.613,-7.59108 -1.84,-8.82107 -1.227,-1.22999 -4.073,-1.84498 -8.537,-1.84498 z m 24.23,51.56285 V 4.67835 h 14.287 V 12.988 h -5.342 v 10.7281 h 5.342 v 8.4029 h -5.342 v 15.7511 h 5.342 v 8.3711 z m 26.632,-20.712 h -9.022 v 10.418 c 0,4.5476 0.575,7.4621 1.725,8.7437 1.15,1.2816 4.051,1.9224 8.703,1.9224 3.186,0 5.346,-0.1756 6.479,-0.5269 0.998,-0.2477 1.89,-0.9183 2.518,-1.8916 0.42,-0.6503 0.713,-1.4086 0.856,-2.217 0.192,-1.2938 0.273,-2.6081 0.243,-3.9222 V 36.3055 c 0,-2.2946 -0.32,-4.1085 -0.959,-5.4416 -0.789,-1.4978 -1.909,-2.6959 -3.233,-3.4573 l -5.546,-3.628 c -0.56,-0.3117 -1.044,-0.7922 -1.406,-1.3955 -0.276,-0.6833 -0.4,-1.4425 -0.358,-2.2017 v -4.899 c -0.045,-0.6812 0.056,-1.365 0.294,-1.9844 0.104,-0.188 0.248,-0.3388 0.417,-0.4369 0.168,-0.0981 0.355,-0.1399 0.542,-0.1212 0.203,-0.0282 0.409,0.0035 0.601,0.0925 0.191,0.0891 0.362,0.2328 0.497,0.419 0.205,0.3413 0.307,1.0183 0.307,2.031 v 7.38 h 8.844 V 11.841 c 0,-2.79038 -0.639,-4.73343 -1.917,-5.82914 -1.278,-1.09572 -4.056,-1.64357 -8.332,-1.64357 -4.55,0 -7.4,0.61499 -8.55,1.84498 -1.15,1.22999 -1.725,4.14973 -1.725,8.75913 v 6.0156 c 0,2.377 0.311,4.2838 0.933,5.7205 0.689,1.5178 1.734,2.7533 3.003,3.5501 l 6.032,4.0616 c 0.556,0.3101 1.039,0.7844 1.405,1.3796 0.281,0.6981 0.404,1.4734 0.358,2.2478 v 8.651 c 0.005,0.2106 -0.027,0.4202 -0.093,0.6151 -0.066,0.1949 -0.165,0.3708 -0.29,0.5165 -0.129,0.1496 -0.282,0.2664 -0.449,0.3436 -0.166,0.0772 -0.344,0.1131 -0.523,0.1058 -0.202,0.0236 -0.405,-0.0185 -0.589,-0.122 -0.184,-0.1035 -0.342,-0.2646 -0.458,-0.4668 -0.242,-0.607 -0.348,-1.281 -0.307,-1.9537 z m 14.85,0 h 9.022 v 10.1079 c -0.041,0.6727 0.065,1.3467 0.307,1.9537 0.116,0.2024 0.274,0.3637 0.458,0.4673 0.184,0.1036 0.388,0.1457 0.59,0.122 0.179,0.0073 0.356,-0.0287 0.523,-0.1058 0.167,-0.0772 0.319,-0.194 0.448,-0.3436 0.126,-0.1457 0.225,-0.3216 0.291,-0.5165 0.066,-0.1949 0.098,-0.4045 0.093,-0.6151 v -8.6515 c 0.046,-0.7744 -0.078,-1.5497 -0.358,-2.2478 -0.366,-0.5952 -0.849,-1.0695 -1.405,-1.3796 l -6.032,-4.0616 c -1.269,-0.7968 -2.314,-2.0323 -3.004,-3.5501 -0.622,-1.437 -0.934,-3.344 -0.934,-5.7209 v -6.0152 c 0,-4.6094 0.576,-7.52914 1.726,-8.75913 1.15,-1.22999 4,-1.84498 8.549,-1.84498 4.277,0 7.054,0.54785 8.332,1.64357 1.278,1.09571 1.917,3.03876 1.917,5.82914 v 10.8214 h -8.843 v -7.38 c 0,-1.0127 -0.102,-1.6897 -0.307,-2.031 -0.135,-0.1862 -0.306,-0.3299 -0.497,-0.419 -0.192,-0.089 -0.398,-0.1207 -0.601,-0.0925 -0.187,-0.0187 -0.374,0.0231 -0.542,0.1212 -0.169,0.0981 -0.313,0.2489 -0.417,0.4369 -0.238,0.6194 -0.34,1.3032 -0.294,1.9844 v 4.899 c -0.042,0.7592 0.082,1.5184 0.358,2.2017 0.362,0.6033 0.846,1.0838 1.406,1.3955 l 5.546,3.628 c 1.324,0.7614 2.444,1.9595 3.233,3.4573 0.639,1.3331 0.959,3.147 0.959,5.4416 v 11.7501 c 0.03,1.3141 -0.051,2.6284 -0.243,3.9222 -0.143,0.8084 -0.436,1.5667 -0.857,2.217 -0.627,0.9733 -1.52,1.6439 -2.517,1.8916 -1.133,0.3513 -3.293,0.5269 -6.48,0.5269 -4.651,0 -7.552,-0.6408 -8.702,-1.9224 -1.15,-1.2816 -1.726,-4.1961 -1.726,-8.7437 z M 181.066,15.3444 v 30.1692 c -0.045,0.6963 0.056,1.3952 0.294,2.031 0.11,0.1967 0.262,0.3537 0.44,0.4546 0.178,0.1009 0.374,0.142 0.57,0.1189 0.177,0.0152 0.354,-0.0142 0.521,-0.0862 0.168,-0.0721 0.321,-0.1853 0.45,-0.3325 0.116,-0.1578 0.205,-0.3417 0.262,-0.5413 0.057,-0.1995 0.081,-0.4107 0.07,-0.6215 V 15.3444 c 0,-0.9922 -0.102,-1.6639 -0.306,-2.0151 -0.142,-0.1944 -0.321,-0.344 -0.522,-0.4358 -0.2,-0.0918 -0.416,-0.123 -0.628,-0.0911 -0.16,-0.0128 -0.32,0.0183 -0.468,0.0907 -0.148,0.0725 -0.281,0.1846 -0.389,0.328 -0.21,0.332 -0.314,0.7449 -0.294,1.1629 z m 25.642,0.4623 v 7.0661 1.3948 c 0,0.7852 -0.124,1.3172 -0.372,1.5962 -0.411,0.3349 -0.907,0.4832 -1.4,0.4185 -0.086,0 -0.223,-0.0104 -0.411,-0.0312 -0.189,-0.0208 -0.335,-0.0312 -0.438,-0.0312 V 13.0175 h 0.797 c 0.736,0 1.224,0.1446 1.464,0.4339 0.24,0.2892 0.36,1.0743 0.36,2.3553 z m 43.858,7.0661 v -7.0661 c 0,-1.281 -0.12,-2.0661 -0.36,-2.3553 -0.24,-0.2893 -0.728,-0.4339 -1.464,-0.4339 h -0.797 v 13.2024 c 0.103,0 0.249,0.0104 0.437,0.0312 0.189,0.0208 0.326,0.0312 0.412,0.0312 0.493,0.0647 0.989,-0.0836 1.4,-0.4185 0.248,-0.279 0.372,-0.811 0.372,-1.5962 z"
     fill="#ffffff"
     id="path48" />
  <path
     d="m 20.298921,11.133314 c -3.339225,-0.35774 -5.565379,0.526668 -6.260797,1.013589 l -7.4230149,32.464788 0.2682721,0.238516 c -0.089397,0.417318 -0.3219122,1.460717 -0.5365432,2.29549 -0.2146989,0.834705 0.089397,1.321634 0.2682711,1.460717 0.4471424,0.288199 1.4906085,0.971877 2.0867974,1.401207 0.4531472,0.429261 1.1626908,0.218589 1.4607845,0.05958 4.511473,-1.907926 13.731377,-5.843072 14.518248,-6.320037 0.984093,-0.596257 2.176329,-0.864528 3.100374,-0.924174 0.924036,-0.05958 1.669269,0.447209 1.997526,0.566434 0.327578,0.119224 14.5478,6.916293 14.607857,6.946117 0.05936,0.02976 0.625807,-0.178871 0.774582,-0.26834 0.149454,-0.0894 1.103518,-0.983753 1.162896,-1.93775 0.05936,-0.953929 -5.246685,-29.125892 -5.873171,-31.003995 -0.625807,-1.609832 -1.699307,-1.788703 -1.788704,-1.907927 -0.08943,-0.119292 -0.238171,-0.238516 -0.745232,-0.685726 C 37.618828,12.80276 36.367214,12.087287 35.114921,11.908416 33.862628,11.729546 32.044575,12.02766 31.835743,12.02766 31.740203,11.95611 31.120539,11.341996 30.82231,11.043881 30.643507,10.835199 28.556574,7.5857397 26.290839,6.661579 23.518042,7.4963046 22.5046,8.3310234 20.298921,11.133314 Z"
     fill="#342166"
     id="path50"
     style="stroke-width:0.68245"
     inkscape:export-xdpi="96"
     inkscape:export-ydpi="96" />
  <path
     fill-rule="evenodd"
     clip-rule="evenodd"
     d="M 7.5827562,47.131016 14.941685,14.61628 c 0,0 1.940893,-1.38291 6.193243,-0.985288 2.427468,-3.241707 4.302843,-3.9566494 6.103147,-4.4786489 1.373775,0.4484246 4.480289,3.5647459 5.025564,5.4639369 2.85811,-0.527023 5.208471,-0.422232 6.193243,1.254003 0.984771,1.676234 5.922985,30.992462 5.922985,30.992462 -0.232032,0.357331 -0.502279,0.687705 -0.807336,0.984912 L 29.123003,40.950472 c 0,0 -2.170868,-1.53292 -5.295132,0.268886 -4.037378,1.680807 -15.2577455,6.628299 -15.2577455,6.628299 z M 10.634265,44.98157 c -0.6690063,-1.274135 3.819467,-22.493293 4.935963,-26.69282 0.631267,-2.197899 1.357393,-3.278013 2.423375,-3.314183 -0.08875,2.147398 -0.185622,2.771158 0.179483,3.13504 0.97386,0 7.106357,-5.652293 8.346371,-6.807552 -0.182208,8.370364 -0.179483,25.259579 -0.179483,25.259579 0,0 -13.698145,7.38848 -15.705709,8.419936 z m 23.56276,-29.025776 c 0.115332,2.73e-4 0.227939,0.0346 0.323485,0.09875 0.09554,0.06415 0.169929,0.155258 0.214283,0.261721 0.04365,0.106461 0.05528,0.223501 0.03278,0.336447 -0.02318,0.112946 -0.07847,0.21661 -0.159696,0.297958 -0.08186,0.08135 -0.185622,0.136695 -0.298229,0.159079 -0.113286,0.02239 -0.230674,0.01079 -0.336453,-0.03337 -0.106458,-0.04408 -0.197222,-0.118747 -0.261372,-0.214563 -0.06411,-0.09575 -0.09827,-0.208352 -0.09827,-0.323481 0,-0.07658 0.01503,-0.152392 0.04433,-0.223094 0.02939,-0.07076 0.07236,-0.134988 0.126933,-0.189106 0.05393,-0.05405 0.118746,-0.09697 0.189045,-0.126185 0.071,-0.02921 0.146729,-0.04423 0.223158,-0.04415 z"
     fill="#ffffff"
     id="path52"
     style="stroke-width:0.68245"
     inkscape:export-xdpi="96"
     inkscape:export-ydpi="96" />
  <path
     d="m 36.66135,31.455795 -3.410204,-0.985527 2.153818,-0.626693 0.807336,-4.29937 z"
     fill="#342166"
     id="path54"
     style="stroke-width:0.68245"
     inkscape:export-xdpi="96"
     inkscape:export-ydpi="96" />
  <path
     d="m 17.993603,26.74109 c -0.640133,2.737854 -2.423375,8.061037 -2.423375,8.061037 -0.486596,-4.488409 0.814164,-10.011139 1.257065,-10.300362 0.44291,-0.289222 5.944149,-3.289137 6.821096,-1.970643 -2.591268,1.318221 -3.797151,1.774917 -5.654786,4.209968 z"
     fill="#ffffff"
     id="path56"
     style="stroke-width:0.68245"
     inkscape:export-xdpi="96"
     inkscape:export-ydpi="96" />
</svg>
